<svg width="203" height="56" viewBox="0 0 203 56" fill="none" xmlns="http://www.w3.org/2000/svg">
<path d="M83.0144 13.1752H82.4845C82.2399 10.0099 81.3161 7.9539 79.6992 7.02057C78.0824 6.08723 76.0988 5.6138 73.7347 5.6138H64.0202V46.464C64.0202 49.9268 65.7864 51.6988 69.3326 51.8206V52.3481H53.7622V51.8206C55.216 51.78 56.4524 51.3471 57.4578 50.5491C58.4632 49.751 58.9659 48.3848 58.9659 46.464V5.6138H49.2514C46.8873 5.6138 44.9037 6.08723 43.3004 7.02057C41.6972 7.9539 40.7597 10.0099 40.5016 13.1752H39.9717V1.29883H40.5016C40.8548 1.85342 41.1673 2.25921 41.4255 2.51622C41.6836 2.77322 42.0369 3.00318 42.458 3.19255C42.8792 3.38192 43.3684 3.51719 43.939 3.58482C44.5096 3.66598 45.1754 3.70656 45.9498 3.70656H77.5797C79.6856 3.70656 81.3161 2.90849 82.4845 1.29883H83.0144V13.1752Z" fill="#5A9BD5"/>
<path d="M87.1579 4.39689H86.4922V3.70703H103.408C106.125 3.70703 108.435 4.12635 110.323 4.965C112.212 5.80365 113.679 6.85872 114.739 8.15727C115.785 9.4423 116.546 10.8085 116.994 12.2423C117.443 13.6761 117.674 15.0829 117.674 16.4626C117.674 18.221 117.307 19.9119 116.56 21.535C115.812 23.1582 114.685 24.5515 113.149 25.7148C111.614 26.878 109.698 27.6761 107.389 28.0954V28.2307C110.31 29.6375 113 32.4375 115.486 36.6172L119.902 44.0433C121.886 47.3708 123.489 49.4674 124.698 50.3466C125.907 51.2259 127.089 51.7264 128.258 51.8346V52.3621H119.372C118.992 51.8752 118.638 51.4152 118.312 50.9553C117.986 50.509 117.633 50.022 117.252 49.5215C117.035 49.1969 116.709 48.6964 116.274 48.0201C115.839 47.3438 115.581 46.965 115.5 46.8838L109.658 37.28C108.489 35.3186 107.28 33.736 106.057 32.5051C104.834 31.2742 103.679 30.4085 102.62 29.8809C101.56 29.3534 100.595 29.0288 99.7528 28.8935C98.8969 28.7582 97.905 28.6906 96.7502 28.6906V46.4916C96.7502 49.9544 98.5164 51.7264 102.063 51.8481V52.3756H86.4922V51.8481C87.4704 51.8075 88.3264 51.6181 89.0737 51.307C89.8209 50.9824 90.4459 50.4413 90.9486 49.6568C91.4513 48.8723 91.6959 47.8307 91.6959 46.5051V9.71283C91.6959 7.77853 91.2204 6.41235 90.2693 5.61428C89.3318 4.78916 88.2856 4.39689 87.1579 4.39689ZM96.7502 27.3785H99.5354C102.457 27.3785 104.848 26.9592 106.723 26.1206C108.598 25.2819 109.943 24.0916 110.785 22.536C111.628 20.9805 112.049 19.0867 112.049 16.8413C112.049 14.9747 111.668 13.135 110.921 11.3495C110.174 9.55051 108.897 8.04906 107.09 6.83167C105.283 5.61428 102.864 5.00558 99.8072 5.00558C98.5708 5.00558 97.5518 5.10027 96.7502 5.30317V27.3785Z" fill="#5A9BD5"/>
<path d="M146.736 3.70689V4.275C145.282 4.275 144.032 4.6808 143.027 5.49239C142.008 6.30399 141.505 7.65664 141.505 9.55036V46.4644C141.505 48.331 142.049 49.6972 143.135 50.5494C144.222 51.4016 145.418 51.8209 146.75 51.8209V52.3484H131.247V51.8209C132.66 51.8209 133.883 51.4016 134.915 50.5764C135.948 49.7513 136.464 48.3851 136.464 46.4644V9.55036C136.464 7.52138 135.948 6.14167 134.915 5.38418C133.883 4.64022 132.66 4.26147 131.247 4.26147V3.69336H146.736V3.70689Z" fill="#5A9BD5"/>
<path d="M165.432 5.77616H165.31C165.255 5.04573 165.038 4.5723 164.671 4.35588C164.304 4.13945 163.842 4.03124 163.285 4.03124H161.043V13.4728C161.043 14.2708 161.451 14.6902 162.266 14.7037V14.8254H158.666V14.7037C159.005 14.6902 159.291 14.5955 159.522 14.4061C159.753 14.2167 159.875 13.9056 159.875 13.4593V4.03124H157.633C157.09 4.03124 156.628 4.13945 156.261 4.35588C155.894 4.5723 155.677 5.04573 155.609 5.77616H155.486V3.03027H155.609C155.69 3.15201 155.758 3.2467 155.826 3.31433C155.894 3.38196 155.962 3.42254 156.071 3.47665C156.166 3.51723 156.288 3.54428 156.41 3.57134C156.546 3.58486 156.696 3.59839 156.872 3.59839H164.182C164.671 3.59839 165.051 3.40902 165.323 3.0438H165.445V5.77616H165.432Z" fill="#5A9BD5"/>
<path d="M166.383 3.74728H166.233V3.58496H170.146C170.771 3.58496 171.315 3.67965 171.75 3.86902C172.184 4.05839 172.524 4.30187 172.769 4.59945C173.013 4.89704 173.19 5.20815 173.285 5.54631C173.394 5.87095 173.448 6.20912 173.448 6.52023C173.448 6.92602 173.366 7.31829 173.19 7.69704C173.013 8.07578 172.755 8.38689 172.402 8.65742C172.049 8.92796 171.6 9.1038 171.07 9.21201V9.23907C171.75 9.5637 172.375 10.213 172.945 11.1734L173.964 12.8912C174.426 13.6623 174.793 14.1492 175.078 14.3521C175.364 14.555 175.635 14.6767 175.907 14.6903V14.812H173.856C173.774 14.7038 173.693 14.5956 173.611 14.4874C173.529 14.3792 173.448 14.271 173.366 14.1492C173.312 14.0681 173.244 13.9598 173.135 13.7975C173.04 13.6487 172.972 13.554 172.959 13.5405L171.614 11.3222C171.342 10.8758 171.07 10.497 170.785 10.213C170.5 9.92892 170.241 9.72602 169.997 9.60428C169.752 9.48255 169.535 9.40139 169.331 9.37433C169.141 9.34728 168.896 9.33375 168.638 9.33375V13.4458C168.638 14.2439 169.046 14.6632 169.861 14.6767V14.7985H166.261V14.6767C166.492 14.6632 166.682 14.6226 166.858 14.555C167.035 14.4874 167.171 14.3521 167.293 14.1763C167.402 14.0004 167.47 13.7569 167.47 13.4458V4.96467C167.47 4.51829 167.361 4.20718 167.144 4.01781C166.886 3.84197 166.641 3.74728 166.383 3.74728ZM168.597 9.06322H169.236C169.915 9.06322 170.459 8.96854 170.894 8.77916C171.328 8.58979 171.641 8.30573 171.831 7.95404C172.021 7.60235 172.116 7.15598 172.116 6.64197C172.116 6.20912 172.035 5.78979 171.858 5.37047C171.682 4.95114 171.383 4.61298 170.975 4.32892C170.554 4.04486 169.997 3.9096 169.29 3.9096C169.005 3.9096 168.774 3.93665 168.584 3.97723V9.06322H168.597Z" fill="#5A9BD5"/>
<path d="M180.159 3.58496V3.72023C179.82 3.72023 179.534 3.81491 179.303 4.00428C179.072 4.19366 178.95 4.50477 178.95 4.93762V13.4729C178.95 13.9057 179.072 14.2168 179.33 14.4197C179.575 14.6091 179.86 14.7173 180.173 14.7173V14.8391H176.586V14.7173C176.912 14.7173 177.197 14.6226 177.428 14.4333C177.659 14.2439 177.782 13.9193 177.782 13.4864V4.93762C177.782 4.46419 177.659 4.15308 177.428 3.97723C177.184 3.80139 176.912 3.72023 176.586 3.72023V3.58496H180.159Z" fill="#5A9BD5"/>
<path d="M186.451 3.45005L189.834 13.081C190.01 13.5814 190.187 13.9467 190.337 14.1631C190.5 14.393 190.649 14.5283 190.799 14.5824C190.948 14.6365 191.125 14.6771 191.356 14.7041V14.8259H187.66V14.7041C188.04 14.7041 188.326 14.6636 188.53 14.5959C188.733 14.5283 188.842 14.3254 188.842 14.0143C188.842 13.8384 188.788 13.6085 188.693 13.3244C188.665 13.2839 188.665 13.2568 188.665 13.2298L187.66 10.2404H183.747L182.85 12.9998C182.728 13.3785 182.66 13.6761 182.66 13.9061C182.66 14.2172 182.742 14.4336 182.905 14.5418C183.068 14.65 183.285 14.7041 183.584 14.7041V14.8259H180.935V14.7041C181.315 14.6636 181.614 14.5283 181.845 14.2713C182.076 14.0143 182.266 13.6355 182.443 13.1215L185.636 3.43652H186.451V3.45005ZM183.883 9.84811H187.483L185.649 4.50512H185.622L183.883 9.84811Z" fill="#5A9BD5"/>
<path d="M192.13 14.7173H192.279C192.551 14.7173 192.796 14.6091 193.013 14.3927C193.23 14.1763 193.326 13.8787 193.326 13.4864V4.9782C193.326 4.50477 193.203 4.18013 192.972 4.00428C192.741 3.81491 192.456 3.72023 192.13 3.72023V3.58496H195.744V3.72023C195.431 3.73375 195.146 3.82844 194.902 4.00428C194.657 4.18013 194.535 4.50477 194.535 4.99172V13.2024C194.535 13.6893 194.657 14.0275 194.902 14.2168C195.146 14.4062 195.554 14.5009 196.111 14.5009H197.089C197.51 14.5009 197.85 14.4468 198.108 14.3521C198.366 14.2439 198.556 14.0951 198.706 13.8922C198.855 13.6893 199.005 13.3917 199.154 13.013H199.29L198.855 14.8661H192.143V14.7173H192.13Z" fill="#5A9BD5"/>
<path d="M161.56 22.509H161.41V22.3467H165.323C165.948 22.3467 166.492 22.4414 166.926 22.6307C167.361 22.8201 167.701 23.0636 167.945 23.3612C168.19 23.6588 168.367 23.9699 168.462 24.308C168.57 24.6327 168.625 24.9708 168.625 25.2819C168.625 25.6877 168.543 26.08 168.367 26.4588C168.19 26.8375 167.932 27.1486 167.579 27.4191C167.225 27.6897 166.777 27.8655 166.247 27.9737V28.0008C166.926 28.3254 167.551 28.9747 168.122 29.9351L169.141 31.6529C169.603 32.424 169.97 32.9109 170.255 33.1138C170.54 33.3167 170.812 33.4385 171.084 33.452V33.5737H169.032C168.951 33.4655 168.869 33.3573 168.788 33.2491C168.706 33.1409 168.625 33.0327 168.543 32.9109C168.489 32.8298 168.421 32.7215 168.312 32.5592C168.217 32.4104 168.149 32.3157 168.136 32.3022L166.79 30.0839C166.519 29.6375 166.247 29.2588 165.962 28.9747C165.676 28.6906 165.418 28.4877 165.174 28.366C164.929 28.2443 164.712 28.1631 164.508 28.136C164.318 28.109 164.073 28.0955 163.815 28.0955V32.2075C163.815 33.0056 164.223 33.4249 165.038 33.4385V33.5602H161.437V33.4385C161.668 33.4249 161.859 33.3843 162.035 33.3167C162.212 33.2491 162.348 33.1138 162.47 32.938C162.579 32.7621 162.647 32.5186 162.647 32.2075V23.6993C162.647 23.253 162.538 22.9418 162.32 22.7525C162.049 22.6037 161.818 22.509 161.56 22.509ZM163.774 27.8249H164.413C165.092 27.8249 165.636 27.7302 166.07 27.5409C166.505 27.3515 166.818 27.0674 167.008 26.7158C167.198 26.3641 167.293 25.9177 167.293 25.4037C167.293 24.9708 167.212 24.5515 167.035 24.1322C166.858 23.7129 166.56 23.3747 166.152 23.0906C165.731 22.8066 165.174 22.6713 164.467 22.6713C164.182 22.6713 163.951 22.6984 163.761 22.739V27.8249H163.774Z" fill="#5A9BD5"/>
<path d="M175.323 22.3467V22.4819C174.984 22.4819 174.698 22.5766 174.467 22.766C174.236 22.9554 174.114 23.2665 174.114 23.6993V32.2346C174.114 32.6674 174.236 32.9785 174.495 33.1814C174.739 33.3708 175.024 33.479 175.337 33.479V33.6008H171.75V33.479C172.076 33.479 172.361 33.3843 172.592 33.195C172.823 33.0056 172.946 32.681 172.946 32.2481V23.7129C172.946 23.2394 172.823 22.9283 172.592 22.7525C172.348 22.5766 172.076 22.4955 171.75 22.4955V22.3602H175.323V22.3467Z" fill="#5A9BD5"/>
<path d="M182.279 24.5104H182.157C182.089 23.9693 181.845 23.4824 181.437 23.0766C181.029 22.6708 180.499 22.4679 179.834 22.4679C179.399 22.4679 179.018 22.5761 178.679 22.779C178.339 22.9819 178.081 23.266 177.891 23.6177C177.701 23.9694 177.619 24.3751 177.619 24.8215C177.619 25.1732 177.673 25.4843 177.782 25.7549C177.891 26.0254 178.054 26.2689 178.271 26.4718C178.489 26.6747 178.733 26.8776 179.032 27.0534C179.317 27.2293 179.711 27.4592 180.214 27.7433C181.043 28.1896 181.681 28.6495 182.143 29.0959C182.605 29.5423 182.836 30.1645 182.836 30.9491C182.836 31.4225 182.714 31.8959 182.47 32.3288C182.225 32.7751 181.845 33.1404 181.342 33.4244C180.839 33.7085 180.214 33.8573 179.48 33.8573C179.018 33.8573 178.597 33.8032 178.244 33.7085C177.891 33.6138 177.524 33.465 177.157 33.2892C177.008 33.235 176.899 33.208 176.845 33.208C176.736 33.208 176.668 33.2486 176.627 33.3162C176.6 33.3974 176.546 33.5597 176.491 33.8167H176.355V31.0032H176.491C176.682 31.8283 177.035 32.4505 177.565 32.8698C178.095 33.2892 178.747 33.5056 179.508 33.5056C180.078 33.5056 180.54 33.3974 180.88 33.1809C181.22 32.9645 181.464 32.7075 181.6 32.3964C181.736 32.0853 181.804 31.7877 181.804 31.4766C181.804 30.8408 181.614 30.3268 181.22 29.9346C180.839 29.5288 180.241 29.123 179.453 28.7036C178.91 28.4061 178.516 28.1761 178.244 28.0138C177.986 27.8515 177.714 27.635 177.456 27.378C177.184 27.121 176.98 26.8099 176.817 26.4582C176.654 26.1065 176.586 25.7008 176.586 25.2408C176.586 24.7133 176.722 24.1993 177.008 23.7259C177.293 23.2389 177.687 22.8602 178.203 22.5626C178.72 22.265 179.304 22.1297 179.956 22.1297C180.445 22.1297 180.961 22.2109 181.478 22.3867C181.559 22.4273 181.668 22.4544 181.804 22.4544C181.967 22.4544 182.089 22.3462 182.143 22.1162H182.266V24.5104H182.279Z" fill="#5A9BD5"/>
<path d="M193.162 22.3465V22.4818C192.849 22.5089 192.564 22.5359 192.319 22.59C192.075 22.6441 191.83 22.7794 191.586 23.0093C191.409 23.1717 191.287 23.2934 191.219 23.3475C191.151 23.4016 191.083 23.4692 191.002 23.5369L187.157 27.3243L191.762 32.505C192.116 32.8973 192.428 33.1543 192.673 33.2489C192.931 33.3572 193.243 33.4248 193.637 33.4654V33.5871H191.205L186.151 27.8924V32.2209C186.151 33.019 186.559 33.4383 187.36 33.4518V33.5736H183.773V33.4518C184.004 33.4383 184.195 33.3977 184.371 33.3301C184.548 33.2625 184.684 33.1272 184.806 32.9514C184.915 32.7755 184.983 32.532 184.983 32.2209V23.6857C184.983 23.2122 184.86 22.8876 184.629 22.7253C184.385 22.563 184.113 22.4683 183.787 22.4683V22.333H187.374V22.4683C186.572 22.4953 186.165 22.9011 186.165 23.6857V27.8383L190.499 23.5233C190.499 23.5369 190.512 23.5233 190.526 23.4828C190.771 23.2663 190.893 23.077 190.893 22.9146C190.893 22.7388 190.825 22.6306 190.675 22.5765C190.54 22.5359 190.322 22.4953 190.037 22.4683V22.333H193.162V22.3465Z" fill="#5A9BD5"/>
<path d="M156.859 41.1211V41.2564C156.519 41.2564 156.234 41.351 156.003 41.5404C155.772 41.7298 155.649 42.0409 155.649 42.4738V51.009C155.649 51.4419 155.772 51.753 156.03 51.9559C156.274 52.1452 156.56 52.2535 156.872 52.2535V52.3752H153.285V52.2535C153.611 52.2535 153.897 52.1588 154.128 51.9694C154.372 51.78 154.481 51.4554 154.481 51.0225V42.4873C154.481 42.0138 154.359 41.7027 154.128 41.5269C153.897 41.351 153.611 41.2699 153.285 41.2699V41.1346H156.859V41.1211Z" fill="#5A9BD5"/>
<path d="M169.698 41.1208V41.2561C169.413 41.2967 169.182 41.3508 169.019 41.4184C168.855 41.486 168.72 41.6348 168.638 41.8512C168.543 42.0677 168.502 42.3788 168.502 42.7846V52.6454H168.421L159.752 43.0145V49.9266C159.752 50.5082 159.78 50.9276 159.82 51.2116C159.861 51.4957 159.929 51.6986 160.024 51.8203C160.214 52.0909 160.54 52.2261 161.016 52.2532V52.3749H158.19V52.2532C158.502 52.2396 158.747 52.172 158.924 52.0503C159.1 51.9285 159.223 51.7121 159.304 51.3875C159.372 51.0628 159.413 50.5894 159.413 49.9537V42.6087L159.032 42.1894C158.706 41.8107 158.434 41.5807 158.231 41.4725C158.027 41.3778 157.782 41.2966 157.483 41.2425V41.1073H159.603L168.149 50.63V43.3662C168.149 42.8252 168.122 42.4194 168.081 42.1488C168.04 41.8783 167.918 41.6619 167.741 41.4995C167.551 41.3372 167.266 41.2425 166.858 41.229V41.0938H169.698V41.1208Z" fill="#5A9BD5"/>
<path d="M170.785 41.2427V41.1074H175.133C175.744 41.1074 176.301 41.1615 176.818 41.2697C177.334 41.378 177.796 41.5132 178.204 41.6891C178.611 41.8649 178.964 42.0543 179.263 42.2572C179.562 42.4601 179.807 42.6765 180.011 42.8929C180.364 43.2446 180.676 43.6504 180.921 44.0833C181.165 44.5161 181.356 44.976 181.478 45.463C181.6 45.9499 181.668 46.4504 181.668 46.9644C181.668 47.4784 181.6 47.9654 181.478 48.4253C181.356 48.8852 181.179 49.318 180.948 49.7103C180.717 50.1026 180.445 50.4678 180.119 50.7789C179.793 51.09 179.426 51.3876 179.005 51.6446C178.638 51.861 178.231 52.0369 177.755 52.1586C177.28 52.2939 176.655 52.3615 175.839 52.3615H170.785V52.2398H170.935C171.288 52.2398 171.546 52.1045 171.723 51.8475C171.899 51.577 171.981 51.3065 171.981 51.0089V42.5142C171.981 42.2301 171.94 41.9866 171.845 41.7973C171.75 41.6079 171.628 41.4591 171.464 41.378C171.301 41.2968 171.125 41.2427 170.935 41.2427H170.785ZM173.149 41.6485V50.5625C173.149 50.9953 173.217 51.32 173.367 51.5229C173.503 51.7258 173.72 51.861 174.019 51.9287C174.318 51.9963 174.752 52.0234 175.323 52.0234C176.138 52.0234 176.831 51.9422 177.388 51.7799C177.945 51.6176 178.489 51.2659 179.019 50.7113C179.413 50.3055 179.725 49.7915 179.956 49.1963C180.187 48.6011 180.309 47.8842 180.309 47.0321C180.309 46.3693 180.214 45.7065 180.024 45.0572C179.834 44.4079 179.549 43.8263 179.155 43.3123C178.72 42.7306 178.163 42.2842 177.483 41.9596C176.804 41.635 175.975 41.4726 175.024 41.4726C174.535 41.4726 173.91 41.5267 173.149 41.6485Z" fill="#5A9BD5"/>
<path d="M183.013 41.2427V41.1074H189.752V42.8794H189.643C189.643 41.9325 189.004 41.4591 187.741 41.4591H185.39V46.5722H187.456C187.863 46.5722 188.23 46.5045 188.556 46.3693C188.882 46.234 189.059 45.9364 189.113 45.463H189.222V48.0195H189.113C189.072 47.7354 188.977 47.5055 188.855 47.3567C188.733 47.2079 188.597 47.0997 188.475 47.0456C188.352 46.9915 188.244 46.9644 188.135 46.9644C187.945 46.9374 187.754 46.9238 187.564 46.9238H185.39V50.9142C185.39 51.2118 185.445 51.4688 185.567 51.6987C185.676 51.9152 185.947 52.0234 186.369 52.0234H188.053C188.461 52.0234 188.787 51.9693 189.045 51.8475C189.303 51.7258 189.507 51.5635 189.657 51.3606C189.806 51.1577 189.928 50.9007 190.037 50.6031H190.146L189.752 52.3615H183.013V52.2398H183.162C183.407 52.2398 183.638 52.1451 183.869 51.9557C184.1 51.7664 184.208 51.4417 184.208 51.0089V42.5277C184.208 42.176 184.127 41.8784 183.977 41.6214C183.828 41.3644 183.543 41.2427 183.162 41.2427H183.013Z" fill="#5A9BD5"/>
<path d="M201.096 41.1211V41.2564C200.838 41.2834 200.594 41.3646 200.349 41.4863C200.105 41.6081 199.819 41.8786 199.493 42.2979C199.126 42.7308 198.909 43.0013 198.868 43.0824L196.463 46.3559L199.33 50.6168C199.683 51.1443 200.009 51.523 200.295 51.7665C200.58 52.01 200.838 52.1453 201.056 52.1994C201.273 52.2535 201.518 52.2805 201.789 52.2805V52.4023H197.537V52.2805C197.904 52.2805 198.135 52.1858 198.243 52.0235C198.352 51.8612 198.406 51.7124 198.406 51.5636C198.406 51.3607 198.298 51.0902 198.094 50.7655L195.798 47.3163L193.488 50.495C193.203 50.8873 193.053 51.2254 193.053 51.523C193.053 51.6718 193.121 51.8341 193.243 52.01C193.366 52.1858 193.624 52.267 194.031 52.267V52.3887H190.621V52.267C191.287 52.2805 191.844 52.01 192.306 51.4554C192.618 51.0902 192.795 50.8738 192.822 50.8332L195.58 47.0593L192.781 42.8525C192.347 42.1897 191.993 41.7704 191.694 41.5945C191.396 41.4187 191.069 41.3105 190.703 41.2834V41.1481H194.765V41.2834C194.398 41.3105 194.154 41.3781 194.018 41.5269C193.882 41.6622 193.828 41.8245 193.828 41.9868C193.828 42.2573 193.963 42.5955 194.222 43.0013L196.273 46.0718L198.542 43.0013C198.868 42.5549 199.031 42.1897 199.031 41.9462C199.031 41.811 198.977 41.6757 198.868 41.5404C198.76 41.3916 198.529 41.3105 198.162 41.2969V41.1617H201.096V41.1211Z" fill="#5A9BD5"/>
<path d="M25.4345 14.8116C25.0134 14.5275 24.5786 14.257 24.1302 14C21.8069 12.715 19.1439 11.971 16.2907 11.971C14.7554 11.971 13.3016 11.687 11.9429 11.1594C10.3941 10.5643 9.00821 9.65797 7.85334 8.52174H24.728C23.5732 9.65797 22.1737 10.5643 20.6384 11.1594C22.3504 11.5923 23.9672 12.2957 25.4345 13.1884C29.6464 10.2937 32.4045 5.46473 32.4045 0H28.3285C28.3285 1.7314 27.9617 3.38164 27.2823 4.86957H5.32621C4.66046 3.38164 4.28003 1.7314 4.28003 0H0.204016C0.204016 5.46473 2.96212 10.2937 7.174 13.1884C7.59519 13.4725 8.02996 13.743 8.47832 14C9.55167 14.5952 10.693 15.0821 11.9022 15.4203C13.3016 15.8126 14.7826 16.029 16.3043 16.029C17.8396 16.029 19.2934 16.313 20.652 16.8406C22.2009 17.4357 23.5868 18.342 24.7416 19.4783H7.86692C9.02179 18.342 10.4212 17.4357 11.9565 16.8406C11.3044 16.6783 10.6658 16.4618 10.0408 16.2319C9.03538 15.8531 8.07072 15.3662 7.16041 14.8116C2.94853 17.7063 0.19043 22.5353 0.19043 28H32.3909C32.4045 22.5353 29.6464 17.7063 25.4345 14.8116ZM4.4159 26.1739C4.57894 25.1053 4.89143 24.0908 5.31262 23.1304H27.2823C27.7171 24.0908 28.016 25.1053 28.1791 26.1739H4.4159Z" fill="#5A9BD5"/>
<path d="M32.4046 28H0.204102C0.204102 33.4647 2.9622 38.2937 7.17409 41.1884C8.0844 40.6338 9.04905 40.1604 10.0545 39.7681C10.6795 39.5246 11.318 39.3217 11.9702 39.1594C10.4213 38.5643 9.03547 37.658 7.8806 36.5217H24.7553C23.6004 37.658 22.201 38.5643 20.6657 39.1594C19.3206 39.687 17.8532 39.971 16.3179 39.971C14.7962 39.971 13.3153 40.1874 11.9159 40.5797C10.7066 40.9179 9.56535 41.4048 8.492 42C8.04364 42.2435 7.60886 42.514 7.18767 42.8116C2.97579 45.7063 0.217688 50.5353 0.217688 56H4.2937C4.2937 54.2686 4.66054 52.6184 5.33988 51.1304H27.3096C27.9753 52.6184 28.3558 54.2686 28.3558 56H32.4318C32.4318 50.5353 29.6737 45.7063 25.4618 42.8116C23.9944 43.7179 22.3776 44.4077 20.6657 44.8406C22.2146 45.4357 23.6004 46.342 24.7553 47.4783H7.86701C9.02188 46.342 10.4213 45.4357 11.9566 44.8406C13.3017 44.313 14.7691 44.029 16.3044 44.029C19.144 44.029 21.8206 43.285 24.1439 42C24.5923 41.7565 25.027 41.486 25.4482 41.1884C29.6465 38.2937 32.4046 33.4647 32.4046 28ZM28.1927 29.8261C28.0297 30.8947 27.7172 31.9092 27.296 32.8696H5.32629C4.89152 31.9092 4.59261 30.8947 4.42957 29.8261H28.1927Z" fill="#5A9BD5"/>
</svg>
